<svg xmlns="http://www.w3.org/2000/svg" width="74.143" height="59.034" viewBox="0 0 54.143 39.034">
  <defs>
    <style>.a,.b{fill:#fff;}.b{font-size:6px;font-family:Telefon-Normal, Telefon;}</style>
  </defs>
  <g transform="translate(-726.415 -133.693)">
    <path class="a" d="M726.415,230.854h4.71v11.911a7.76,7.76,0,0,1-.11,1.067h3.878a8.127,8.127,0,0,1-.11-1.067V230.854H739.5v-3.093H726.415Z" transform="translate(0 -71.104)"/>
    <path class="a" d="M919.8,230.854v-3.093H908.111a8.128,8.128,0,0,1,.11,1.067v13.937a7.756,7.756,0,0,1-.11,1.067H919.8v-3.093h-7.924v-3.474h6.027v-3.093h-6.027v-3.317Z" transform="translate(-139.244 -71.104)"/>
    <path class="a" d="M798.823,243.832h-3.878a8.132,8.132,0,0,0,.11-1.067V228.828a7.76,7.76,0,0,0-.11-1.067h3.878a8.124,8.124,0,0,0-.11,1.067v13.937a7.751,7.751,0,0,0,.11,1.067" transform="translate(-52.519 -71.104)"/>
    <path class="a" d="M838.434,227.761h-3.878a7.754,7.754,0,0,1,.11,1.051v9.58l-7.773-10.632h-4.558l.955,1.367a3.169,3.169,0,0,1,.588,2.03v11.606a7.751,7.751,0,0,1-.11,1.067h3.878a8.132,8.132,0,0,1-.11-1.067V234.1l6.994,9.733h3.9a8.127,8.127,0,0,1-.11-1.067V228.812a7.4,7.4,0,0,1,.11-1.051" transform="translate(-73.509 -71.104)"/>
    <rect class="a" width="25.632" height="3.993" transform="translate(740.67 143.47)"/>
    <rect class="a" width="25.632" height="2.48" transform="translate(740.67 149.46)"/>
    <path class="a" d="M758.787,145.3c1.124,0,1.433.873,1.278,1.972s-.75,5.239-.75,5.239l2.515,1.143V143.524a6.02,6.02,0,0,0-2.515-.462,5.6,5.6,0,0,0-2.684.582l1.029,1.9a3,3,0,0,1,1.126-.244" transform="translate(-23.157 -6.194)"/>
    <path class="a" d="M907.444,147.277c-.155-1.1.155-1.972,1.278-1.972a3,3,0,0,1,1.126.244l1.029-1.9a5.6,5.6,0,0,0-2.683-.582,6.022,6.022,0,0,0-2.515.462v10.134l2.515-1.142s-.595-4.14-.75-5.239" transform="translate(-137.38 -6.194)"/>
    <path class="a" d="M800.244,135.807c2.158,0,3.421,1.262,3.53,2.207h-7.06c.109-.945,1.372-2.207,3.53-2.207m5.392.373a12.107,12.107,0,0,0-1.723-.894,11.6,11.6,0,0,1-1.533-1.169c-.2-.131-.537-.416-2.136-.416s-1.932.285-2.136.416a11.588,11.588,0,0,1-1.533,1.169,12.123,12.123,0,0,0-1.723.894c-.2.192-.391.691-.4,1.834h-7.019v2.48H813.06v-2.48h-7.018c-.014-1.143-.2-1.642-.4-1.834" transform="translate(-46.758 0.979)"/>
    <text class="b" transform="translate(775.414 139.693)"><tspan x="0" y="0">®</tspan></text>
  </g>
</svg>
